<?xml version="1.0" ?><svg data-name="Layer 1" id="Layer_1" viewBox="0 0 150 150" xmlns="http://www.w3.org/2000/svg" xmlns:xlink="http://www.w3.org/1999/xlink"><defs><style>.cls-1{fill:#243238;}.cls-2{clip-path:url(#clip-path);}.cls-3{fill:#f9c774;}.cls-4{fill:#fff;}</style><clipPath id="clip-path"><circle class="cls-1" cx="75" cy="75" r="65"/></clipPath></defs><title/><circle class="cls-1" cx="75" cy="75" r="65"/><g class="cls-2"><circle class="cls-3" cx="85.98" cy="55.18" r="13.82"/><path class="cls-4" d="M86,81.94a1,1,0,0,1-1-1V72.37a1,1,0,0,1,2.1,0v8.52A1,1,0,0,1,86,81.94Z"/><path class="cls-3" d="M86,38.65a1,1,0,0,1-1-1V29.48a1,1,0,0,1,2.1,0V37.6A1,1,0,0,1,86,38.65Z"/><path class="cls-3" d="M111.69,56.23h-8.52a1,1,0,1,1,0-2.09h8.52A1,1,0,1,1,111.69,56.23Z"/><path class="cls-4" d="M68.4,56.23H60.27a1,1,0,1,1,0-2.09H68.4A1,1,0,1,1,68.4,56.23Z"/><line class="cls-1" x1="98.13" x2="104.16" y1="67.34" y2="73.36"/><path class="cls-4" d="M104.16,74.41a1,1,0,0,1-.74-0.31l-6-6a1,1,0,0,1,1.48-1.48l6,6A1,1,0,0,1,104.16,74.41Z"/><path class="cls-3" d="M73.55,43.8a1,1,0,0,1-.74-0.31l-5.75-5.75a1,1,0,0,1,1.48-1.48L74.29,42A1,1,0,0,1,73.55,43.8Z"/><path class="cls-3" d="M98.13,44.08a1,1,0,0,1-.74-1.79l6-6a1,1,0,0,1,1.48,1.48l-6,6A1,1,0,0,1,98.13,44.08Z"/><line class="cls-1" x1="67.8" x2="73.55" y1="73.36" y2="67.61"/><path class="cls-4" d="M67.8,74.41a1,1,0,0,1-.74-1.79l5.75-5.75a1,1,0,0,1,1.48,1.48L68.54,74.1A1,1,0,0,1,67.8,74.41Z"/><path class="cls-4" d="M104.09,66.56H98.54a14.42,14.42,0,0,0-20.84-.62,14.44,14.44,0,0,0-28.88.51v0.12H45.91a14.34,14.34,0,0,0,0,28.67H50.7V95.5a14.44,14.44,0,0,0,28.44,3.57,14.41,14.41,0,0,0,20.91-3.84h4A14.34,14.34,0,0,0,104.09,66.56Z"/></g></svg>